<?xml version="1.0" encoding="UTF-8" standalone="no"?>
<svg
   xmlns:dc="http://purl.org/dc/elements/1.1/"
   xmlns:cc="http://creativecommons.org/ns#"
   xmlns:rdf="http://www.w3.org/1999/02/22-rdf-syntax-ns#"
   xmlns:svg="http://www.w3.org/2000/svg"
   xmlns="http://www.w3.org/2000/svg"
   xmlns:sodipodi="http://sodipodi.sourceforge.net/DTD/sodipodi-0.dtd"
   xmlns:inkscape="http://www.inkscape.org/namespaces/inkscape"
   version="1.1"
   id="Capa_1"
   x="0px"
   y="0px"
   width="479.456px"
   height="479.456px"
   viewBox="0 0 479.456 479.456"
   style="enable-background:new 0 0 479.456 479.456;"
   xml:space="preserve"
   sodipodi:docname="icon_loop_all.svg"
   inkscape:version="1.0.1 (3bc2e813f5, 2020-09-07)"><metadata
   id="metadata49"><rdf:RDF><cc:Work
       rdf:about=""><dc:format>image/svg+xml</dc:format><dc:type
         rdf:resource="http://purl.org/dc/dcmitype/StillImage" /></cc:Work></rdf:RDF></metadata><defs
   id="defs47" /><sodipodi:namedview
   pagecolor="#ffffff"
   bordercolor="#666666"
   borderopacity="1"
   objecttolerance="10"
   gridtolerance="10"
   guidetolerance="10"
   inkscape:pageopacity="0"
   inkscape:pageshadow="2"
   inkscape:window-width="2160"
   inkscape:window-height="1346"
   id="namedview45"
   showgrid="false"
   inkscape:zoom="1.5329874"
   inkscape:cx="239.728"
   inkscape:cy="239.728"
   inkscape:window-x="-11"
   inkscape:window-y="-11"
   inkscape:window-maximized="1"
   inkscape:current-layer="g10" />
<g
   id="g12">
	<g
   id="g10">
		<path
   d="M187.34,458.68c0.832,0.076,1.657,0.128,2.48,0.128c11.596,0,21.58-8.752,22.847-20.554    c1.349-12.632-7.799-23.973-20.428-25.319c-76.458-8.195-141.036-87.177-141.036-172.495c0-78.836,55.184-152.142,123.881-169.304    v15.542c0,8.856,5.08,10.96,11.335,4.697l47.88-32.54c6.264-6.264,6.264-16.415,0-22.682L186.42,3.606    c-6.264-6.264-11.335-4.16-11.335,4.695v15.733C81.805,41.186,5.203,137.212,5.203,240.439    C5.203,348.151,88.605,448.101,187.34,458.68z"
   id="path2" />
		<path
   d="M292.108,22.197c-12.527-1.256-23.965,7.789-25.315,20.428c-1.346,12.629,7.791,23.964,20.426,25.316    c76.45,8.189,141.029,87.18,141.029,172.498c0,79.852-56.576,154.142-126.51,170.047v-17.7c0-8.853-5.074-10.965-11.333-4.701    l-47.879,32.544c-6.264,6.264-6.264,16.415,0,22.679l47.879,32.544c6.264,6.264,11.333,4.155,11.333-4.7v-13.806    c94.463-15.794,172.516-112.713,172.516-216.906C474.246,132.724,390.843,32.78,292.108,22.197z"
   id="path4" />
		<polygon
   points="366.39,145.465 372.192,145.465 377.987,145.143   "
   id="polygon6" />
		
	</g>
</g>
<g
   id="g14">
</g>
<g
   id="g16">
</g>
<g
   id="g18">
</g>
<g
   id="g20">
</g>
<g
   id="g22">
</g>
<g
   id="g24">
</g>
<g
   id="g26">
</g>
<g
   id="g28">
</g>
<g
   id="g30">
</g>
<g
   id="g32">
</g>
<g
   id="g34">
</g>
<g
   id="g36">
</g>
<g
   id="g38">
</g>
<g
   id="g40">
</g>
<g
   id="g42">
</g>
</svg>
